<svg id="Layer_1" data-name="Layer 1" xmlns="http://www.w3.org/2000/svg" viewBox="0 0 348.21 273.25"><defs><style>.cls-1{fill:none;stroke:#000;stroke-miterlimit:10;}.cls-2{fill:blue;}</style></defs><path class="cls-1" d="M145.79,225.68v137L319.5,430.5m0-272.5" transform="translate(-144.79 -158)"/><path class="cls-1" d="M492.5,229.5c-4.64,2.78-19.48,9.57-37,18-11.32,5.44-11.52,4.9-17,8-17.55,9.94-20.42,18.36-33,28-17.35,13.29-22.16,5.12-47,19-23.61,13.19-24.94,24.56-38,26h0l-1,102,172.21-70,.5-29.29L492.5,229l-6.92,2.83c-8.66,3.61-22.67,7.68-36.08,4.67-9.93-2.23-9.37-6.3-23-12-22.62-9.46-29.26-.39-45-9-16.11-8.81-17-22.61-31-24-6.22-.62-8.08,1.9-16,4-30.28,8-49.77-16.47-75-6-4.41,1.83-5.8,3.4-11,7-37,25.6-87.21,29.14-100.36,29.63,6.28-.1,20.51-.12,24.05,1.44C185,234.24,185.57,250,201.5,246.5c18.42-4,43.3,25.69,73,52,32.87,29.12,41.55,30.42,46,30" transform="translate(-144.79 -158)"/><path class="cls-1" d="M145.8,226.21c.15,0,1.37,0,3.22-.07C147,226.21,145.9,226.21,145.8,226.21Z" transform="translate(-144.79 -158)"/><path class="cls-2" d="M319.5,305.5c-4.45.42-13.13.12-46-29-29.7-26.31-54.58-56-73-52C184.57,228,184,212.24,171.19,205.57c-4.69-2.07-26.4-1.36-26.4-1.36s59.61.1,102.71-29.71c5.2-3.6,6.59-5.17,11-7,25.23-10.47,44.72,14,75,6,7.92-2.1,9.78-4.62,16-4,14,1.39,14.89,15.19,31,24,15.74,8.61,22.38-.46,45,9,13.63,5.7,13.07,9.77,23,12,21.95,4.93,42.79-9,43-9-.21,0-15.05,9.44-37,20-11.32,5.44-11.52,4.9-17,8-17.55,9.94-20.42,18.36-33,28-17.35,13.29-22.16,5.12-47,19C333.66,293.82,332.93,304.22,319.5,305.5Z" transform="translate(-144.79 -158)"/></svg>